<svg xmlns="http://www.w3.org/2000/svg" viewBox="0 0 227.21 197.64"><defs><style>.cls-1{fill:#1d1d1b;}.cls-2{fill:#898035;}.cls-3{fill:#caae39;}.cls-4{fill:#8b412e;}</style></defs><g id="Layer_2" data-name="Layer 2"><g id="Layer_1-2" data-name="Layer 1"><path class="cls-1" d="M3.49,169.67c0-.61,0-2.21-.07-4.79H3a19.22,19.22,0,0,0-3,.22,6.43,6.43,0,0,0,.05-.85,4.53,4.53,0,0,0,0-.74c1.6.07,3.19.13,4.79.13s3.2-.06,4.79-.13a4.52,4.52,0,0,0-.06.74,6.52,6.52,0,0,0,.06.85,19.31,19.31,0,0,0-3-.22H6.18c-.08,1.3-.08,2.59-.08,3.87,0,2.69,0,5,.2,7.06-.52-.05-1-.09-1.55-.09a14.15,14.15,0,0,0-1.47.09C3.44,173.81,3.49,171.78,3.49,169.67Z"/><path class="cls-1" d="M17.61,163.28c4.25,0,6.6,2.34,6.6,6.39,0,3.85-2.66,6.37-6.8,6.37-4.41,0-6.81-2.25-6.81-6.19S13.18,163.28,17.61,163.28ZM17.41,175c2.36,0,3.89-1.93,3.89-5.35s-1.53-5.38-3.89-5.38-3.91,2-3.91,5.38S15,175,17.41,175Z"/><path class="cls-1" d="M26.39,169.67c0-2.25-.06-4.32-.22-6.16a10,10,0,0,0,1.26.07c.83,0,1.82-.08,3-.08,2.77,0,4.09,1,4.09,3.24,0,2.55-1.62,3.76-4.95,3.76l-.6,0v2.65c0,.34.08,1.24.2,2.68-.5-.05-1-.09-1.51-.09a14.34,14.34,0,0,0-1.48.09C26.35,173.87,26.39,171.83,26.39,169.67Zm5.27-2.84c0-1.57-.66-2.33-2-2.33-.18,0-.36,0-.56,0a19.15,19.15,0,0,0-.11,2v3C30.87,169.51,31.66,168.73,31.66,166.83Z"/><path class="cls-1" d="M36.47,169.67c0-2.2-.06-4.25-.24-6.16.4,0,.72.06,1,.06.48,0,1.54-.09,3.2-.09,2.9,0,4.34,1,4.34,3.11,0,1.64-1,2.7-2.92,3.15l4.05,6.07c-.52-.05-1.06-.09-1.6-.09s-1.06,0-1.6.09c-1.06-1.89-2.27-3.83-3.62-5.85v2.43c0,1.12,0,2.25.14,3.42a13.44,13.44,0,0,0-1.45-.09c-.49,0-1,0-1.52.09C36.43,173.78,36.47,171.74,36.47,169.67Zm2.64-.27c2,0,2.83-.79,2.83-2.65,0-1.54-.75-2.23-2.45-2.23l-.39,0c0,.74-.06,1.48-.06,2.18v2.68Z"/><path class="cls-1" d="M50.6,163.28a5.94,5.94,0,0,0,.72.05,4.4,4.4,0,0,0,.65-.05c1.47,4.07,3.15,8.25,5,12.53-.5-.05-1-.07-1.55-.07s-1,0-1.54.07c-.42-1.3-.81-2.48-1.19-3.62-.71,0-1.41,0-2.11,0s-1.4,0-2.11,0c-.45,1.32-.86,2.52-1.27,3.62a4.87,4.87,0,0,0-.78-.05,6.19,6.19,0,0,0-.84.05C47.43,171.72,49.09,167.53,50.6,163.28Zm0,7.76c.52,0,1.06,0,1.6,0-.45-1.38-1-2.77-1.56-4.12A41.06,41.06,0,0,0,49,171C49.52,171,50,171,50.58,171Z"/><path class="cls-1" d="M65.58,163.51a8.76,8.76,0,0,0,2.21,0c-1.62,1.68-3.2,3.39-4.77,5.13l5.08,7.17c-.58-.05-1.16-.09-1.73-.09s-1.15,0-1.73.09c-1.26-2-2.49-3.85-3.66-5.53v2.85a26.41,26.41,0,0,0,.15,2.68c-.51-.05-1-.09-1.51-.09s-1,0-1.52.09c.18-1.94.22-4,.22-6.14s0-4.32-.22-6.16a10.49,10.49,0,0,0,3,0c-.09,1-.15,2-.15,2.88v2.74A58.59,58.59,0,0,0,65.58,163.51Z"/><path class="cls-1" d="M73.82,172l1.15-8.5a3.25,3.25,0,0,0,.77.07,3.66,3.66,0,0,0,.8-.07c1.33,2.94,2.71,5.73,4.16,8.41q2.16-4,4.1-8.41a4,4,0,0,0,.83.07,3.88,3.88,0,0,0,.83-.07l1,8.61c.17,1.33.33,2.57.58,3.69-.52-.05-1-.09-1.53-.09a14.74,14.74,0,0,0-1.5.09c0-1.21-.09-2.05-.14-2.52l-.58-5.74c-1.45,2.79-2.8,5.54-4.08,8.26a1.23,1.23,0,0,0-.38,0,1.08,1.08,0,0,0-.36,0c-1.39-2.93-2.72-5.58-4-8L75,171.58a40.13,40.13,0,0,0-.34,4.23,3.09,3.09,0,0,0-1.48,0C73.55,173.81,73.75,172.53,73.82,172Z"/><path class="cls-1" d="M93.53,163.28a5.94,5.94,0,0,0,.72.05,4.4,4.4,0,0,0,.65-.05c1.47,4.07,3.15,8.25,5,12.53-.5-.05-1-.07-1.55-.07s-1,0-1.54.07c-.42-1.3-.81-2.48-1.19-3.62-.71,0-1.41,0-2.11,0s-1.4,0-2.11,0c-.45,1.32-.86,2.52-1.28,3.62a4.67,4.67,0,0,0-.77-.05,6.43,6.43,0,0,0-.85.05C90.36,171.72,92,167.53,93.53,163.28Zm0,7.76c.52,0,1.06,0,1.6,0-.45-1.38-1-2.77-1.56-4.12A41.06,41.06,0,0,0,91.91,171C92.45,171,93,171,93.51,171Z"/><path class="cls-1" d="M101.25,169.67c0-2.25-.06-4.32-.22-6.16a10.49,10.49,0,0,0,3,0c-.09,1-.15,2-.15,2.88v2.13c.9,0,1.8.07,2.7.07s1.81,0,2.7-.07v-2.13c0-.93,0-1.89-.14-2.88a10.49,10.49,0,0,0,3,0c-.17,1.84-.22,3.91-.22,6.16s0,4.2.22,6.14c-.51-.05-1-.09-1.52-.09s-1,0-1.51.09a26.42,26.42,0,0,0,.14-2.68v-3.28c-.89,0-1.8,0-2.7,0s-1.8,0-2.7,0v3.28a26.41,26.41,0,0,0,.15,2.68c-.51-.05-1-.09-1.52-.09s-1,0-1.51.09C101.21,173.87,101.25,171.83,101.25,169.67Z"/><path class="cls-1" d="M114.8,172.71H115a2.58,2.58,0,0,0,2.63,2.2,1.8,1.8,0,0,0,2-1.82c0-1.06-.77-1.49-2.07-2.19-2.16-1.16-3.35-2-3.35-4s1.61-3.67,4.23-3.67a5,5,0,0,1,2.89.84,18.57,18.57,0,0,0-.6,2h-.2a2.47,2.47,0,0,0-2.41-1.73,1.59,1.59,0,0,0-1.76,1.58c0,1,.68,1.42,2,2.09a11.38,11.38,0,0,1,2.63,1.51,3.28,3.28,0,0,1,1,2.43c0,2.42-1.75,4-4.52,4a5.18,5.18,0,0,1-3.22-.84C114.42,174.46,114.62,173.63,114.8,172.71Z"/><path class="cls-1" d="M125.51,163.58a12,12,0,0,0,1.48-.07c-.2,2-.27,4.2-.27,6.54a9.32,9.32,0,0,0,.36,3.35,2.66,2.66,0,0,0,2.7,1.56,3.21,3.21,0,0,0,2.86-1.35c.6-.91.65-2.28.65-4.28,0-2.22-.07-4.14-.21-5.82a4.61,4.61,0,0,0,.9.07,4.49,4.49,0,0,0,.9-.07c-.11,1.64-.17,3-.17,3.91s0,1.75,0,2.66c0,2-.18,3.35-1.1,4.4A5.36,5.36,0,0,1,129.4,176c-2.16,0-3.71-.63-4.46-1.69s-.8-2.52-.8-4.59v-1.58a42,42,0,0,0-.18-4.67A13.7,13.7,0,0,0,125.51,163.58Z"/><path class="cls-1" d="M137.75,169.67c0-2.3-.05-4.36-.21-6.16a10.84,10.84,0,0,0,1.51.11,11,11,0,0,0,1.51-.11c-.16,1.84-.21,3.89-.21,6.16,0,2,0,3.57.12,4.86,1.28,0,2.65-.11,4.11-.25a4.51,4.51,0,0,0-.06.76,5.19,5.19,0,0,0,.06.77c-1.35-.07-2.61-.13-3.73-.13s-2.13.06-3.31.13C137.72,173.81,137.75,171.78,137.75,169.67Z"/><path class="cls-1" d="M146.32,169.67c0-2.3,0-4.36-.22-6.16a10.49,10.49,0,0,0,3,0c-.16,1.84-.22,3.89-.22,6.16,0,2,0,3.57.13,4.86,1.28,0,2.65-.11,4.1-.25a5.94,5.94,0,0,0,0,.76,6.93,6.93,0,0,0,0,.77c-1.35-.07-2.61-.13-3.72-.13s-2.13.06-3.32.13C146.28,173.81,146.32,171.78,146.32,169.67Z"/><path class="cls-1" d="M154.89,169.67v-.9a43.29,43.29,0,0,0-.22-5.26c1.26.06,2.47.07,3.62.07s2.27,0,3.33-.07a6.85,6.85,0,0,0-.07.78,6.34,6.34,0,0,0,.07.75c-1.62-.1-3-.18-4.05-.19,0,.61,0,1.2,0,1.78v2.09c1.42-.06,2.79-.09,4-.15a4.56,4.56,0,0,0-.07.76,5.24,5.24,0,0,0,.07.77c-1.57-.09-2.92-.16-4-.16v2.16a23.2,23.2,0,0,0,.07,2.41c1.08,0,2.43-.12,4-.27a5.65,5.65,0,0,0-.05.71,6.36,6.36,0,0,0,.07.86c-1.94-.05-3.4-.09-4.36-.09s-1.74,0-2.61.09A52.51,52.51,0,0,0,154.89,169.67Z"/><path class="cls-1" d="M163.94,169.67c0-2.2-.05-4.25-.23-6.16.39,0,.72.06,1,.06.49,0,1.55-.09,3.21-.09,2.89,0,4.34,1,4.34,3.11,0,1.64-1,2.7-2.92,3.15l4.05,6.07c-.52-.05-1.06-.09-1.6-.09s-1.07,0-1.61.09c-1.06-1.89-2.26-3.83-3.61-5.85v2.43c0,1.12.05,2.25.14,3.42a13.63,13.63,0,0,0-1.46-.09c-.49,0-1,0-1.51.09C163.91,173.78,163.94,171.74,163.94,169.67Zm2.65-.27c2,0,2.83-.79,2.83-2.65,0-1.54-.76-2.23-2.45-2.23l-.4,0c0,.74,0,1.48,0,2.18v2.68Z"/><path class="cls-1" d="M174.85,169.67c0-2.3,0-4.38-.2-6.16a11.84,11.84,0,0,0,1.57.11,11.42,11.42,0,0,0,1.55-.11c-.17,1.82-.2,3.89-.2,6.16s0,4.2.2,6.14c-.52-.05-1.05-.09-1.55-.09s-1.05,0-1.57.09C174.83,173.76,174.85,171.72,174.85,169.67Z"/><path class="cls-1" d="M191.68,163.28c4.25,0,6.61,2.34,6.61,6.39,0,3.85-2.67,6.37-6.81,6.37-4.41,0-6.8-2.25-6.8-6.19S187.25,163.28,191.68,163.28Zm-.2,11.74c2.36,0,3.89-1.93,3.89-5.35s-1.53-5.38-3.89-5.38-3.9,2-3.9,5.38S189.07,175,191.48,175Z"/><path class="cls-1" d="M200.45,169.67q0-3.3-.17-6.16c1.14.06,2.29.07,3.44.07s2.31,0,3.48-.07a4.35,4.35,0,0,0-.06.74,5.67,5.67,0,0,0,.06.79,32.57,32.57,0,0,0-3.3-.19h-.74a16.29,16.29,0,0,0-.09,2.24v1.65c1.46,0,2.8-.11,4-.21a6.3,6.3,0,0,0-.05.75,6.47,6.47,0,0,0,.05.76c-1.24-.11-2.55-.16-4-.18V173a21.07,21.07,0,0,0,.18,2.81,15.11,15.11,0,0,0-1.51-.09c-.5,0-1,0-1.51.09C200.41,173.92,200.45,171.89,200.45,169.67Z"/><path class="cls-1" d="M209.39,169.67c0-2.3,0-4.38-.2-6.16a12,12,0,0,0,1.57.11,11.42,11.42,0,0,0,1.55-.11c-.16,1.82-.2,3.89-.2,6.16s0,4.2.2,6.14c-.52-.05-1.05-.09-1.55-.09s-1,0-1.57.09C209.37,173.76,209.39,171.72,209.39,169.67Z"/><path class="cls-1" d="M214.92,172.71h.23a2.6,2.6,0,0,0,2.63,2.2,1.81,1.81,0,0,0,2-1.82c0-1.06-.78-1.49-2.07-2.19-2.16-1.16-3.35-2-3.35-4s1.6-3.67,4.23-3.67a5,5,0,0,1,2.88.84c-.25.73-.45,1.39-.59,2h-.2a2.48,2.48,0,0,0-2.42-1.73,1.59,1.59,0,0,0-1.76,1.58c0,1,.68,1.42,2,2.09a11.17,11.17,0,0,1,2.63,1.51,3.29,3.29,0,0,1,1,2.43c0,2.42-1.75,4-4.52,4a5.21,5.21,0,0,1-3.23-.84Q214.65,174.09,214.92,172.71Z"/><path class="cls-1" d="M224.29,169.67c0-2.3,0-4.38-.19-6.16a11.69,11.69,0,0,0,1.56.11,11.2,11.2,0,0,0,1.55-.11c-.16,1.82-.2,3.89-.2,6.16s0,4.2.2,6.14c-.52-.05-1-.09-1.55-.09s-1,0-1.56.09C224.28,173.76,224.29,171.72,224.29,169.67Z"/><path class="cls-1" d="M33.47,197.63c-4,0-6.48-2.43-6.48-6.36s2.59-6.39,7.07-6.39a8.82,8.82,0,0,1,4.61,1.1,9.78,9.78,0,0,0-.55,2.14H38a4,4,0,0,0-3.83-2.2c-2.7,0-4.27,1.89-4.27,5.35s1.53,5.31,4.25,5.31a4.91,4.91,0,0,0,2.09-.41c0-.56,0-1.1,0-1.66a23.7,23.7,0,0,0-.14-2.66c.5.05,1,.07,1.47.07a11.2,11.2,0,0,0,1.3-.07c0,.91-.07,1.85-.07,2.81,0,.7,0,1.4,0,2.12A19.52,19.52,0,0,1,33.47,197.63Z"/><path class="cls-1" d="M41.28,191.27v-.9a43.29,43.29,0,0,0-.22-5.26c1.26.06,2.47.07,3.62.07s2.27,0,3.33-.07a6.65,6.65,0,0,0-.07.78,6.34,6.34,0,0,0,.07.75c-1.62-.1-3-.18-4-.19-.05.61-.05,1.2-.05,1.78v2.09c1.42-.06,2.79-.09,4-.15a6,6,0,0,0-.07.76,7.1,7.1,0,0,0,.07.77c-1.56-.09-2.91-.16-4-.16v2.16a23.2,23.2,0,0,0,.07,2.41c1.08,0,2.43-.12,4-.27a5.65,5.65,0,0,0,0,.71,8.54,8.54,0,0,0,.07.86c-1.94,0-3.4-.09-4.35-.09s-1.75,0-2.62.09A52.51,52.51,0,0,0,41.28,191.27Z"/><path class="cls-1" d="M50.15,191.38c0-2.31-.07-4.39-.21-6.27a5.56,5.56,0,0,0,1,.07,5.28,5.28,0,0,0,1-.07q3.68,4.11,7.51,8.27v-2.13q0-.81-.07-6.14a3.14,3.14,0,0,0,.74.07,2.67,2.67,0,0,0,.79-.09c-.15,1.26-.16,3.79-.16,7.53v1a33.53,33.53,0,0,0,.14,3.8,3.86,3.86,0,0,0-.77-.09,4.46,4.46,0,0,0-.8.09c-2.52-2.88-5.15-5.74-7.85-8.62V194c0,.31,0,1.43.06,3.37a4,4,0,0,0-.76-.09,4.24,4.24,0,0,0-.77.09C50.1,195.54,50.15,193.52,50.15,191.38Z"/><path class="cls-1" d="M63.65,191.27v-.9a43.4,43.4,0,0,0-.21-5.26c1.26.06,2.46.07,3.62.07s2.27,0,3.33-.07a5,5,0,0,0-.07.78,4.76,4.76,0,0,0,.07.75c-1.62-.1-3-.18-4-.19-.06.61-.06,1.2-.06,1.78v2.09c1.43-.06,2.79-.09,4-.15a4.54,4.54,0,0,0-.08.76,5.3,5.3,0,0,0,.08.77c-1.57-.09-2.92-.16-4-.16v2.16a23.2,23.2,0,0,0,.07,2.41c1.09,0,2.44-.12,4-.27a4.25,4.25,0,0,0-.06.71,6.4,6.4,0,0,0,.08.86c-2,0-3.41-.09-4.36-.09s-1.75,0-2.61.09A55,55,0,0,0,63.65,191.27Z"/><path class="cls-1" d="M72.71,191.27c0-2.3-.06-4.36-.22-6.16a10.49,10.49,0,0,0,3,0c-.17,1.84-.22,3.89-.22,6.16,0,1.94,0,3.56.13,4.86,1.28,0,2.64-.11,4.1-.25a5.94,5.94,0,0,0,0,.76,6.93,6.93,0,0,0,0,.77c-1.35-.07-2.61-.13-3.73-.13s-2.12.06-3.31.13C72.67,195.41,72.71,193.38,72.71,191.27Z"/><path class="cls-1" d="M85.88,193.61l1.16-8.5a3.25,3.25,0,0,0,.77.07,3.62,3.62,0,0,0,.79-.07c1.33,2.94,2.72,5.73,4.16,8.41q2.16-4,4.11-8.41a3.88,3.88,0,0,0,.83.07,3.79,3.79,0,0,0,.82-.07l1,8.61a35.37,35.37,0,0,0,.58,3.69c-.53,0-1-.09-1.53-.09a14.74,14.74,0,0,0-1.5.09c0-1.21-.09-2-.14-2.52l-.58-5.74c-1.46,2.79-2.81,5.54-4.09,8.26a1.17,1.17,0,0,0-.37,0,1.08,1.08,0,0,0-.36,0c-1.39-2.93-2.72-5.58-4-8l-.43,3.75a40.13,40.13,0,0,0-.34,4.23,4,4,0,0,0-.74-.09,3.74,3.74,0,0,0-.74.09C85.61,195.41,85.81,194.13,85.88,193.61Z"/><path class="cls-1" d="M103.7,185.18a12,12,0,0,0,1.48-.07c-.2,2-.27,4.2-.27,6.54a9.32,9.32,0,0,0,.36,3.35,2.66,2.66,0,0,0,2.7,1.56,3.18,3.18,0,0,0,2.86-1.35c.6-.92.65-2.28.65-4.28,0-2.22-.07-4.14-.21-5.82a4.61,4.61,0,0,0,.9.07,4.49,4.49,0,0,0,.9-.07c-.11,1.64-.17,3-.17,3.91s0,1.75,0,2.66c0,2-.18,3.35-1.1,4.4a5.36,5.36,0,0,1-4.25,1.56c-2.16,0-3.71-.63-4.46-1.69s-.8-2.52-.8-4.59v-1.58a44.53,44.53,0,0,0-.17-4.67A13.43,13.43,0,0,0,103.7,185.18Zm2.63-4.05a1.14,1.14,0,0,1,1.14,1.14,1.09,1.09,0,0,1-1.14,1.15,1.13,1.13,0,0,1-1.15-1.15A1.18,1.18,0,0,1,106.33,181.13Zm3.3,0a1.13,1.13,0,0,1,1.13,1.14,1.09,1.09,0,0,1-1.13,1.15,1.13,1.13,0,0,1-1.15-1.15A1.18,1.18,0,0,1,109.63,181.13Z"/><path class="cls-1" d="M115.93,192.87V190.3a46.16,46.16,0,0,0-.2-5.17c.5,0,1,.05,1.4.05,1.17,0,2.4-.07,3.67-.07,2,0,3.48.2,4.67,1.14a5.82,5.82,0,0,1,2,4.73c0,4.29-2.48,6.45-7.4,6.45-1.22,0-2.23-.06-3.06-.06-.48,0-.91,0-1.29,0A35.36,35.36,0,0,0,115.93,192.87Zm3.92,3.55c3.13,0,4.74-1.76,4.74-5.28s-1.43-5-4.72-5l-1.21,0c0,1.77-.07,3.66-.07,5.66,0,1.42,0,2.91,0,4.46A8.1,8.1,0,0,0,119.85,196.42Z"/><path class="cls-1" d="M131.14,185.18a11.87,11.87,0,0,0,1.47-.07c-.2,2-.27,4.2-.27,6.54a9.32,9.32,0,0,0,.36,3.35,2.66,2.66,0,0,0,2.7,1.56,3.21,3.21,0,0,0,2.87-1.35c.59-.92.64-2.28.64-4.28,0-2.22-.07-4.14-.21-5.82a4.61,4.61,0,0,0,.9.07,4.49,4.49,0,0,0,.9-.07c-.11,1.64-.16,3-.16,3.91s0,1.75,0,2.66c0,2-.18,3.35-1.1,4.4a5.35,5.35,0,0,1-4.25,1.56c-2.16,0-3.7-.63-4.46-1.69s-.79-2.52-.79-4.59v-1.58a44.49,44.49,0,0,0-.18-4.67A13.5,13.5,0,0,0,131.14,185.18Zm2.62-4.05a1.14,1.14,0,0,1,1.14,1.14,1.09,1.09,0,0,1-1.14,1.15,1.14,1.14,0,0,1-1.15-1.15A1.18,1.18,0,0,1,133.76,181.13Zm3.3,0a1.13,1.13,0,0,1,1.13,1.14,1.09,1.09,0,0,1-1.13,1.15,1.13,1.13,0,0,1-1.15-1.15A1.18,1.18,0,0,1,137.06,181.13Z"/><path class="cls-1" d="M143.38,191.27c0-2.2-.06-4.25-.24-6.16.4,0,.72.06,1,.06.49,0,1.55-.09,3.21-.09,2.9,0,4.34,1,4.34,3.11,0,1.64-1,2.7-2.92,3.15l4,6.07c-.52,0-1.06-.09-1.6-.09s-1.06,0-1.6.09c-1.07-1.89-2.27-3.83-3.62-5.85V194c0,1.12.05,2.25.14,3.42a13.63,13.63,0,0,0-1.46-.09c-.48,0-1,0-1.51.09C143.34,195.38,143.38,193.34,143.38,191.27ZM146,191c2,0,2.83-.79,2.83-2.65,0-1.55-.76-2.23-2.45-2.23l-.4,0c0,.74-.05,1.48-.05,2.18V191Z"/><path class="cls-1" d="M154.28,191.27c0-2.3-.05-4.36-.21-6.16a10.42,10.42,0,0,0,3,0c-.16,1.84-.21,3.89-.21,6.16,0,1.94,0,3.56.12,4.86,1.28,0,2.65-.11,4.11-.25a4.51,4.51,0,0,0-.06.76,5.19,5.19,0,0,0,.06.77c-1.35-.07-2.61-.13-3.73-.13s-2.13.06-3.31.13C154.25,195.41,154.28,193.38,154.28,191.27Z"/><path class="cls-1" d="M164.18,185.18a12,12,0,0,0,1.48-.07c-.2,2-.27,4.2-.27,6.54a9.32,9.32,0,0,0,.36,3.35,2.66,2.66,0,0,0,2.7,1.56,3.21,3.21,0,0,0,2.86-1.35c.6-.92.65-2.28.65-4.28,0-2.22-.07-4.14-.21-5.82a4.61,4.61,0,0,0,.9.07,4.49,4.49,0,0,0,.9-.07c-.11,1.64-.17,3-.17,3.91s0,1.75,0,2.66c0,2-.18,3.35-1.1,4.4a5.36,5.36,0,0,1-4.25,1.56c-2.16,0-3.71-.63-4.46-1.69s-.8-2.52-.8-4.59v-1.58a41.93,41.93,0,0,0-.18-4.67A13.7,13.7,0,0,0,164.18,185.18Zm2.63-4.05a1.14,1.14,0,0,1,1.14,1.14,1.09,1.09,0,0,1-1.14,1.15,1.13,1.13,0,0,1-1.15-1.15A1.18,1.18,0,0,1,166.81,181.13Zm3.3,0a1.13,1.13,0,0,1,1.13,1.14,1.09,1.09,0,0,1-1.13,1.15,1.14,1.14,0,0,1-1.16-1.15A1.18,1.18,0,0,1,170.11,181.13Z"/><path class="cls-1" d="M182,197.63c-4.05,0-6.49-2.43-6.49-6.36s2.6-6.39,7.08-6.39a8.85,8.85,0,0,1,4.61,1.1,9.82,9.82,0,0,0-.56,2.14h-.14a4,4,0,0,0-3.84-2.2c-2.7,0-4.26,1.89-4.26,5.35s1.53,5.31,4.24,5.31a4.88,4.88,0,0,0,2.09-.41c0-.56.06-1.1.06-1.66a21.56,21.56,0,0,0-.15-2.66c.51.05,1,.07,1.48.07a11.45,11.45,0,0,0,1.3-.07c-.06.91-.08,1.85-.08,2.81,0,.7,0,1.4,0,2.12A19.52,19.52,0,0,1,182,197.63Z"/><path class="cls-1" d="M191.13,185.18a12.13,12.13,0,0,0,1.48-.07c-.2,2-.27,4.2-.27,6.54a9.32,9.32,0,0,0,.36,3.35,2.65,2.65,0,0,0,2.7,1.56,3.21,3.21,0,0,0,2.86-1.35c.59-.92.65-2.28.65-4.28,0-2.22-.07-4.14-.22-5.82a4.67,4.67,0,0,0,.9.07,4.44,4.44,0,0,0,.9-.07c-.11,1.64-.16,3-.16,3.91s0,1.75,0,2.66c0,2-.18,3.35-1.1,4.4a5.36,5.36,0,0,1-4.25,1.56c-2.16,0-3.71-.63-4.47-1.69s-.79-2.52-.79-4.59v-1.58a44.49,44.49,0,0,0-.18-4.67A13.5,13.5,0,0,0,191.13,185.18Zm2.63-4.05a1.13,1.13,0,0,1,1.13,1.14,1.09,1.09,0,0,1-1.13,1.15,1.13,1.13,0,0,1-1.15-1.15A1.18,1.18,0,0,1,193.76,181.13Zm3.29,0a1.14,1.14,0,0,1,1.14,1.14,1.09,1.09,0,0,1-1.14,1.15,1.13,1.13,0,0,1-1.15-1.15A1.18,1.18,0,0,1,197.05,181.13Z"/><path class="cls-2" d="M96.22,88.32V84.44a56.77,56.77,0,0,0-12.49,0v3.93h4a2.19,2.19,0,0,1,4,0Z"/><path class="cls-2" d="M135.35,88.32V84.44a56.77,56.77,0,0,0-12.49,0v3.93H127a2.19,2.19,0,0,1,4,0Z"/><path class="cls-2" d="M68.89,83.32A19.83,19.83,0,0,0,72.18,83c-1.64-7.62-8.89-13.38-17.61-13.38a18.7,18.7,0,0,0-3.28.29c1.63,7.62,8.89,13.37,17.6,13.37"/><path class="cls-2" d="M68.92,83.32A19.62,19.62,0,0,1,65.64,83c1.63-7.62,8.89-13.38,17.6-13.38a18.61,18.61,0,0,1,3.28.29c-1.63,7.62-8.89,13.37-17.6,13.37"/><path class="cls-2" d="M109.37,83.32a19.71,19.71,0,0,0,3.28-.28c-1.63-7.62-8.89-13.38-17.6-13.38a18.61,18.61,0,0,0-3.28.29c1.63,7.62,8.89,13.37,17.6,13.37"/><path class="cls-2" d="M109.39,83.32a19.71,19.71,0,0,1-3.28-.28c1.63-7.62,8.89-13.38,17.61-13.38A18.7,18.7,0,0,1,127,70c-1.63,7.62-8.9,13.37-17.61,13.37"/><path class="cls-2" d="M70.13,98.94a20.45,20.45,0,0,0,3.51-.31c-1.75-8.16-9.52-14.31-18.84-14.31a20.28,20.28,0,0,0-3.51.3C53,92.78,60.8,98.94,70.13,98.94"/><path class="cls-2" d="M70.16,98.94a20.3,20.3,0,0,1-3.52-.31c1.75-8.16,9.52-14.31,18.84-14.31a20.28,20.28,0,0,1,3.51.3c-1.75,8.16-9.51,14.32-18.83,14.32"/><path class="cls-2" d="M109.37,98.94a20.27,20.27,0,0,0,3.51-.31c-1.75-8.16-9.51-14.31-18.83-14.31a20.19,20.19,0,0,0-3.51.3c1.74,8.16,9.51,14.32,18.83,14.32"/><path class="cls-2" d="M109.39,98.94a20.16,20.16,0,0,1-3.5-.31c1.74-8.16,9.51-14.31,18.83-14.31a20.28,20.28,0,0,1,3.51.3c-1.75,8.16-9.51,14.32-18.84,14.32"/><path class="cls-2" d="M148.61,98.94a20.27,20.27,0,0,0,3.51-.31c-1.75-8.16-9.52-14.31-18.83-14.31a20.11,20.11,0,0,0-3.51.3c1.74,8.16,9.51,14.32,18.83,14.32"/><path class="cls-2" d="M148.64,98.94a20.27,20.27,0,0,1-3.51-.31c1.75-8.16,9.51-14.31,18.83-14.31a20.28,20.28,0,0,1,3.51.3c-1.75,8.16-9.51,14.32-18.83,14.32"/><path class="cls-2" d="M149.84,83.32a19.62,19.62,0,0,0,3.28-.28c-1.63-7.62-8.89-13.38-17.6-13.38a18.7,18.7,0,0,0-3.28.29c1.63,7.62,8.89,13.37,17.6,13.37"/><path class="cls-2" d="M149.87,83.32a19.62,19.62,0,0,1-3.28-.28c1.63-7.62,8.89-13.38,17.6-13.38a18.61,18.61,0,0,1,3.28.29c-1.63,7.62-8.89,13.37-17.6,13.37"/><path class="cls-3" d="M56.21,65.72V27.16H51.37V65.69c.73-.07,1.48-.11,2.23-.11a24.76,24.76,0,0,1,2.61.14"/><path class="cls-3" d="M66.32,69.49V27.16H61.48V66.93a18.56,18.56,0,0,1,4.84,2.56"/><path class="cls-3" d="M76.44,66.9V27.1H71.6V69.45a18.38,18.38,0,0,1,4.84-2.55"/><path class="cls-3" d="M86.55,65.69V27.16H81.71V65.72a23.59,23.59,0,0,1,2.54-.14c.79,0,1.55,0,2.3.11"/><path class="cls-3" d="M96.66,65.72V27.16H91.82V65.69c.75-.07,1.51-.11,2.28-.11a23.82,23.82,0,0,1,2.56.14"/><path class="cls-3" d="M106.77,69.45V27.16h-4.84V66.9a18.84,18.84,0,0,1,4.84,2.55"/><path class="cls-3" d="M116.88,66.92V27.16H112V69.49a18.74,18.74,0,0,1,4.84-2.57"/><path class="cls-3" d="M127,65.69V27.16h-4.83V65.72a24.57,24.57,0,0,1,2.6-.14c.76,0,1.5,0,2.23.11"/><path class="cls-3" d="M137.11,65.71V27.16h-4.84V65.7a22.68,22.68,0,0,1,2.35-.12c.85,0,1.67,0,2.49.13"/><path class="cls-3" d="M147.22,69.4V27.16h-4.84V66.88a18.63,18.63,0,0,1,4.84,2.52"/><path class="cls-3" d="M157.33,67V27.16h-4.84V69.53A18.9,18.9,0,0,1,157.33,67"/><path class="cls-3" d="M167.45,65.68V27.16h-4.84V65.73a23.19,23.19,0,0,1,2.66-.15c.74,0,1.46,0,2.18.1"/><path class="cls-1" d="M156.42,10.73a6.6,6.6,0,0,1-13.15,0c0-3.31,2.94-6,6.58-6a6.3,6.3,0,0,1,6.57,6m11,0C167.45,4.88,162.3.12,155.9,0H143.64V0c-6.32.18-11.4,4.9-11.4,10.71s5.08,10.54,11.4,10.72v0H155.9c6.4-.12,11.55-4.87,11.55-10.73"/><polygon class="cls-1" points="86.52 5.62 86.52 0 51.34 0 51.34 5.62 63.9 5.62 63.9 21.46 74.44 21.46 74.44 5.62 86.52 5.62"/><path class="cls-4" d="M96.83,133.83c0-6.5,5.62-11.73,12.64-11.73s12.74,5.23,12.74,11.73-5.74,11.71-12.74,11.71-12.64-5.23-12.64-11.71"/><path class="cls-4" d="M79.05,112.61c0-6.5,5.76-11.73,12.63-11.73s12.66,5.23,12.66,11.73S98.7,124.3,91.68,124.3s-12.63-5.21-12.63-11.69"/><path class="cls-4" d="M114.46,112.61c0-6.5,5.64-11.73,12.65-11.73s12.64,5.23,12.64,11.73-5.62,11.69-12.64,11.69-12.65-5.21-12.65-11.69"/><polygon class="cls-1" points="91.75 0.05 91.75 21.37 97.33 21.37 97.33 4.58 103.08 21.46 111.98 21.46 117.64 4.93 117.64 21.46 126.89 21.46 126.89 0.23 113.72 0.23 109.71 12.13 105.26 0.05 91.75 0.05"/><path class="cls-1" d="M176.19,159.87a1.13,1.13,0,0,1,1.15,1.14,1.15,1.15,0,1,1-2.29,0A1.13,1.13,0,0,1,176.19,159.87Z"/><path class="cls-1" d="M225.67,159.87a1.13,1.13,0,0,1,1.14,1.14,1.15,1.15,0,1,1-2.29,0A1.13,1.13,0,0,1,225.67,159.87Z"/><path class="cls-1" d="M210.75,159.87A1.13,1.13,0,0,1,211.9,161a1.15,1.15,0,1,1-2.3,0A1.14,1.14,0,0,1,210.75,159.87Z"/><path class="cls-1" d="M182,182.59a3.85,3.85,0,0,0,3-1.18l.2.25a3.62,3.62,0,0,1-3.24,1.8,3.56,3.56,0,0,1-3.19-1.8l.21-.22A4,4,0,0,0,182,182.59Z"/></g></g></svg>