<svg xmlns="http://www.w3.org/2000/svg" width="82.85" height="92.47" viewBox="0 0 82.85 92.47"><defs><style>.cls-1{fill:#cf1619;}.cls-2{fill:#1d1d1b;}</style></defs><g id="Layer_2" data-name="Layer 2"><g id="Layer_1-2" data-name="Layer 1"><path class="cls-1" d="M21.82,19.6a19.6,19.6,0,0,1,39.2,0H59.84A18.42,18.42,0,0,0,23,19.6ZM53.35,35.16a19.62,19.62,0,0,1-23.85,0,11.9,11.9,0,0,1-.42-1.9,18.39,18.39,0,0,0,24.69,0,11.9,11.9,0,0,1-.42,1.9m-28-15.56a16,16,0,0,1,32.07,0H55.68a14.26,14.26,0,0,0-28.51,0Zm16,16a16,16,0,0,1-12.36-5.82,13,13,0,0,1,.52-2.28,14.25,14.25,0,0,0,23.68,0,12.21,12.21,0,0,1,.53,2.28,16,16,0,0,1-12.37,5.82m11-10.1a12.47,12.47,0,0,1-21.94,0,12.52,12.52,0,0,1,7.16-5.94H29a12.48,12.48,0,0,1,25,0H45.24a12.47,12.47,0,0,1,7.15,5.94"/><path class="cls-2" d="M53.26,27.54a13.1,13.1,0,0,0-.86-2,12.49,12.49,0,0,0,1.5-5.94h1.78a14.15,14.15,0,0,1-2.42,7.94m.51,5.72a12.41,12.41,0,0,0,0-3.44A16,16,0,0,0,57.46,19.6h2.38a18.35,18.35,0,0,1-6.07,13.66M27.17,19.6H29a12.49,12.49,0,0,0,1.5,5.94,13.1,13.1,0,0,0-.86,2,14.15,14.15,0,0,1-2.42-7.94M23,19.6h2.38a16,16,0,0,0,3.67,10.22A13,13,0,0,0,29,31.48a11.56,11.56,0,0,0,.13,1.78A18.35,18.35,0,0,1,23,19.6m51.08,0L41.42,65.34,8.76,19.6H21.82A19.56,19.56,0,0,0,29.5,35.16a12.48,12.48,0,0,0,23.85,0A19.56,19.56,0,0,0,61,19.6Z"/><rect class="cls-2" x="39.98" y="75.68" width="2.89" height="16.57"/><polygon class="cls-2" points="2.04 92.25 2.04 78.43 0 78.43 0 75.68 6.96 75.68 6.96 78.43 4.92 78.43 4.92 92.25 2.04 92.25"/><path class="cls-2" d="M26.41,92.25V75.68h2.51a6.67,6.67,0,0,1,3.74.95,3.69,3.69,0,0,1,1.65,3.27V80a3.87,3.87,0,0,1-2.39,3.75,3.81,3.81,0,0,1,2.61,3.69v.21A4.11,4.11,0,0,1,33,91a6.16,6.16,0,0,1-4,1.21Zm2.89-9.61h0a1.9,1.9,0,0,0,2.13-2.18v0c0-1.38-.71-2.06-2.13-2.06h0Zm0,6.94h.07A2.31,2.31,0,0,0,31,89a2,2,0,0,0,.64-1.59V87.3A2,2,0,0,0,31,85.72a2.31,2.31,0,0,0-1.63-.57H29.3Z"/><rect class="cls-2" x="39.98" y="71.78" width="2.77" height="2.48"/><polygon class="cls-2" points="50.35 92.25 50.35 78.43 48.32 78.43 48.32 75.68 55.28 75.68 55.28 78.43 53.24 78.43 53.24 92.25 50.35 92.25"/><path class="cls-2" d="M59.85,92.25,63,75.64h3.08l3.15,16.61H66.34L65.8,89H63.17l-.52,3.29Zm3.74-5.89h1.78l-.88-5.47Z"/><polygon class="cls-2" points="74.3 92.25 74.3 75.68 77.19 75.68 77.19 82.62 79.53 75.68 82.8 75.68 80 82.69 82.85 92.25 79.63 92.25 77.83 85.98 77.19 87.8 77.19 92.25 74.3 92.25"/><rect class="cls-2" x="13.22" y="71.78" width="2.51" height="2.48"/><path class="cls-2" d="M16.44,92.47a3.73,3.73,0,0,1-2.94-1.21,5.59,5.59,0,0,1-1.18-3.84V75.68h2.86v12c0,1.39.42,2.08,1.26,2.08s1.25-.69,1.25-2.08v-12h2.86V87.42a5.63,5.63,0,0,1-1.16,3.84,3.78,3.78,0,0,1-2.95,1.21"/><rect class="cls-2" x="17.15" y="71.78" width="2.51" height="2.48"/></g></g></svg>